<svg xmlns="http://www.w3.org/2000/svg" viewBox="0 0 800 520" width="800" height="520">
  <defs>
    <filter id="shadow" x="-20%" y="-20%" width="140%" height="140%">
      <feDropShadow dx="0" dy="2" stdDeviation="3" flood-color="#423D33" flood-opacity="0.1"/>
    </filter>
    <marker id="arrow-charcoal" markerWidth="10" markerHeight="7" refX="9" refY="3.5" orient="auto">
      <polygon points="0 0, 10 3.5, 0 7" fill="#423D33"/>
    </marker>
    <marker id="arrow-terracotta" markerWidth="10" markerHeight="7" refX="9" refY="3.5" orient="auto">
      <polygon points="0 0, 10 3.5, 0 7" fill="#D68A59"/>
    </marker>
    <marker id="arrow-red" markerWidth="10" markerHeight="7" refX="9" refY="3.5" orient="auto">
      <polygon points="0 0, 10 3.5, 0 7" fill="#c44"/>
    </marker>
  </defs>

  <!-- Background -->
  <rect width="800" height="520" fill="#faf9f7"/>

  <!-- Column headers -->
  <text x="200" y="35" font-family="Georgia, serif" font-size="20" font-weight="600" fill="#423D33" text-anchor="middle">Entrainment</text>
  <text x="600" y="35" font-family="Georgia, serif" font-size="20" font-weight="600" fill="#423D33" text-anchor="middle">Coherence</text>

  <!-- Row labels -->
  <text x="45" y="120" font-family="system-ui, sans-serif" font-size="11" fill="#6b6358" text-anchor="middle">baseline</text>
  <text x="45" y="265" font-family="system-ui, sans-serif" font-size="11" fill="#6b6358" text-anchor="middle">stress</text>
  <text x="45" y="410" font-family="system-ui, sans-serif" font-size="11" fill="#6b6358" text-anchor="middle">after</text>

  <!-- Divider -->
  <line x1="400" y1="55" x2="400" y2="480" stroke="#e0dbd3" stroke-width="1" stroke-dasharray="4,4"/>

  <!-- Row dividers -->
  <line x1="80" y1="180" x2="720" y2="180" stroke="#e0dbd3" stroke-width="1"/>
  <line x1="80" y1="325" x2="720" y2="325" stroke="#e0dbd3" stroke-width="1"/>


  <!-- ========== ROW 1: BASELINE ========== -->

  <!-- Entrainment baseline - uniform -->
  <g transform="translate(200, 115)">
    <g transform="translate(-70, -35)">
      <circle cx="0" cy="0" r="18" fill="#f5f0e8" stroke="#423D33" stroke-width="1.5" filter="url(#shadow)"/>
      <line x1="0" y1="0" x2="12" y2="-8" stroke="#423D33" stroke-width="2" marker-end="url(#arrow-charcoal)"/>
    </g>
    <g transform="translate(0, -35)">
      <circle cx="0" cy="0" r="18" fill="#f5f0e8" stroke="#423D33" stroke-width="1.5" filter="url(#shadow)"/>
      <line x1="0" y1="0" x2="12" y2="-8" stroke="#423D33" stroke-width="2" marker-end="url(#arrow-charcoal)"/>
    </g>
    <g transform="translate(70, -35)">
      <circle cx="0" cy="0" r="18" fill="#f5f0e8" stroke="#423D33" stroke-width="1.5" filter="url(#shadow)"/>
      <line x1="0" y1="0" x2="12" y2="-8" stroke="#423D33" stroke-width="2" marker-end="url(#arrow-charcoal)"/>
    </g>
    <g transform="translate(-35, 25)">
      <circle cx="0" cy="0" r="18" fill="#f5f0e8" stroke="#423D33" stroke-width="1.5" filter="url(#shadow)"/>
      <line x1="0" y1="0" x2="12" y2="-8" stroke="#423D33" stroke-width="2" marker-end="url(#arrow-charcoal)"/>
    </g>
    <g transform="translate(35, 25)">
      <circle cx="0" cy="0" r="18" fill="#f5f0e8" stroke="#423D33" stroke-width="1.5" filter="url(#shadow)"/>
      <line x1="0" y1="0" x2="12" y2="-8" stroke="#423D33" stroke-width="2" marker-end="url(#arrow-charcoal)"/>
    </g>
  </g>

  <!-- Coherence baseline - diverse but connected -->
  <g transform="translate(600, 115)">
    <g stroke="#D68A59" stroke-width="1" stroke-opacity="0.25">
      <line x1="-70" y1="-35" x2="0" y2="-35"/>
      <line x1="0" y1="-35" x2="70" y2="-35"/>
      <line x1="-70" y1="-35" x2="-35" y2="25"/>
      <line x1="70" y1="-35" x2="35" y2="25"/>
      <line x1="-35" y1="25" x2="35" y2="25"/>
      <line x1="0" y1="-35" x2="-35" y2="25"/>
      <line x1="0" y1="-35" x2="35" y2="25"/>
    </g>
    <g transform="translate(-70, -35)">
      <circle cx="0" cy="0" r="18" fill="#f5f0e8" stroke="#7B9361" stroke-width="1.5" filter="url(#shadow)"/>
      <line x1="0" y1="0" x2="-5" y2="-13" stroke="#D68A59" stroke-width="2" marker-end="url(#arrow-terracotta)"/>
    </g>
    <g transform="translate(0, -35)">
      <circle cx="0" cy="0" r="18" fill="#f5f0e8" stroke="#7B9361" stroke-width="1.5" filter="url(#shadow)"/>
      <line x1="0" y1="0" x2="10" y2="-10" stroke="#D68A59" stroke-width="2" marker-end="url(#arrow-terracotta)"/>
    </g>
    <g transform="translate(70, -35)">
      <circle cx="0" cy="0" r="18" fill="#f5f0e8" stroke="#7B9361" stroke-width="1.5" filter="url(#shadow)"/>
      <line x1="0" y1="0" x2="14" y2="0" stroke="#D68A59" stroke-width="2" marker-end="url(#arrow-terracotta)"/>
    </g>
    <g transform="translate(-35, 25)">
      <circle cx="0" cy="0" r="18" fill="#f5f0e8" stroke="#7B9361" stroke-width="1.5" filter="url(#shadow)"/>
      <line x1="0" y1="0" x2="-12" y2="-6" stroke="#D68A59" stroke-width="2" marker-end="url(#arrow-terracotta)"/>
    </g>
    <g transform="translate(35, 25)">
      <circle cx="0" cy="0" r="18" fill="#f5f0e8" stroke="#7B9361" stroke-width="1.5" filter="url(#shadow)"/>
      <line x1="0" y1="0" x2="8" y2="11" stroke="#D68A59" stroke-width="2" marker-end="url(#arrow-terracotta)"/>
    </g>
  </g>


  <!-- ========== ROW 2: UNDER STRESS ========== -->

  <!-- Stress indicator -->
  <g transform="translate(400, 252)">
    <rect x="-55" y="-10" width="110" height="18" rx="3" fill="#faf9f7"/>
    <text x="0" y="4" font-family="system-ui, sans-serif" font-size="10" fill="#D68A59" text-anchor="middle" font-weight="600">PERTURBATION</text>
  </g>

  <!-- Entrainment under stress - chaotic scatter -->
  <g transform="translate(200, 260)">
    <g transform="translate(-80, -40)">
      <circle cx="0" cy="0" r="18" fill="#f5f0e8" stroke="#423D33" stroke-width="1.5" filter="url(#shadow)"/>
      <line x1="0" y1="0" x2="-8" y2="11" stroke="#423D33" stroke-width="2" marker-end="url(#arrow-charcoal)"/>
    </g>
    <g transform="translate(15, -45)">
      <circle cx="0" cy="0" r="18" fill="#f5f0e8" stroke="#423D33" stroke-width="1.5" filter="url(#shadow)"/>
      <line x1="0" y1="0" x2="4" y2="-13" stroke="#423D33" stroke-width="2" marker-end="url(#arrow-charcoal)"/>
    </g>
    <g transform="translate(85, -25)">
      <circle cx="0" cy="0" r="18" fill="#f5f0e8" stroke="#423D33" stroke-width="1.5" filter="url(#shadow)"/>
      <line x1="0" y1="0" x2="13" y2="3" stroke="#423D33" stroke-width="2" marker-end="url(#arrow-charcoal)"/>
    </g>
    <g transform="translate(-50, 30)">
      <circle cx="0" cy="0" r="18" fill="#f5f0e8" stroke="#423D33" stroke-width="1.5" filter="url(#shadow)"/>
      <line x1="0" y1="0" x2="-11" y2="-7" stroke="#423D33" stroke-width="2" marker-end="url(#arrow-charcoal)"/>
    </g>
    <g transform="translate(55, 40)">
      <circle cx="0" cy="0" r="18" fill="#f5f0e8" stroke="#423D33" stroke-width="1.5" filter="url(#shadow)"/>
      <line x1="0" y1="0" x2="6" y2="12" stroke="#423D33" stroke-width="2" marker-end="url(#arrow-charcoal)"/>
    </g>
  </g>

  <!-- Coherence under stress - displaced but structure intact -->
  <g transform="translate(600, 260)">
    <g stroke="#D68A59" stroke-width="1" stroke-opacity="0.25">
      <line x1="-65" y1="-42" x2="8" y2="-48"/>
      <line x1="8" y1="-48" x2="75" y2="-30"/>
      <line x1="-65" y1="-42" x2="-30" y2="28"/>
      <line x1="75" y1="-30" x2="40" y2="35"/>
      <line x1="-30" y1="28" x2="40" y2="35"/>
      <line x1="8" y1="-48" x2="-30" y2="28"/>
      <line x1="8" y1="-48" x2="40" y2="35"/>
    </g>
    <g transform="translate(-65, -42)">
      <circle cx="0" cy="0" r="18" fill="#f5f0e8" stroke="#7B9361" stroke-width="1.5" filter="url(#shadow)"/>
      <line x1="0" y1="0" x2="-3" y2="-13" stroke="#D68A59" stroke-width="2" marker-end="url(#arrow-terracotta)"/>
    </g>
    <g transform="translate(8, -48)">
      <circle cx="0" cy="0" r="18" fill="#f5f0e8" stroke="#7B9361" stroke-width="1.5" filter="url(#shadow)"/>
      <line x1="0" y1="0" x2="11" y2="-8" stroke="#D68A59" stroke-width="2" marker-end="url(#arrow-terracotta)"/>
    </g>
    <g transform="translate(75, -30)">
      <circle cx="0" cy="0" r="18" fill="#f5f0e8" stroke="#7B9361" stroke-width="1.5" filter="url(#shadow)"/>
      <line x1="0" y1="0" x2="12" y2="5" stroke="#D68A59" stroke-width="2" marker-end="url(#arrow-terracotta)"/>
    </g>
    <g transform="translate(-30, 28)">
      <circle cx="0" cy="0" r="18" fill="#f5f0e8" stroke="#7B9361" stroke-width="1.5" filter="url(#shadow)"/>
      <line x1="0" y1="0" x2="-10" y2="-9" stroke="#D68A59" stroke-width="2" marker-end="url(#arrow-terracotta)"/>
    </g>
    <g transform="translate(40, 35)">
      <circle cx="0" cy="0" r="18" fill="#f5f0e8" stroke="#7B9361" stroke-width="1.5" filter="url(#shadow)"/>
      <line x1="0" y1="0" x2="6" y2="12" stroke="#D68A59" stroke-width="2" marker-end="url(#arrow-terracotta)"/>
    </g>
  </g>


  <!-- ========== ROW 3: AFTER ========== -->

  <!-- Entrainment after - still chaotic, one agent "failing" -->
  <g transform="translate(200, 405)">
    <g transform="translate(-75, -35)">
      <circle cx="0" cy="0" r="18" fill="#f5f0e8" stroke="#423D33" stroke-width="1.5" filter="url(#shadow)"/>
      <line x1="0" y1="0" x2="-7" y2="11" stroke="#423D33" stroke-width="2" marker-end="url(#arrow-charcoal)"/>
    </g>
    <g transform="translate(10, -45)">
      <circle cx="0" cy="0" r="18" fill="#f5f0e8" stroke="#423D33" stroke-width="1.5" filter="url(#shadow)"/>
      <line x1="0" y1="0" x2="9" y2="-10" stroke="#423D33" stroke-width="2" marker-end="url(#arrow-charcoal)"/>
    </g>
    <g transform="translate(80, -20)">
      <circle cx="0" cy="0" r="18" fill="#f5f0e8" stroke="#423D33" stroke-width="1.5" filter="url(#shadow)"/>
      <line x1="0" y1="0" x2="13" y2="2" stroke="#423D33" stroke-width="2" marker-end="url(#arrow-charcoal)"/>
    </g>
    <g transform="translate(-45, 30)">
      <circle cx="0" cy="0" r="18" fill="#fce8e8" stroke="#c44" stroke-width="2" filter="url(#shadow)"/>
      <line x1="0" y1="0" x2="-6" y2="-12" stroke="#c44" stroke-width="2" marker-end="url(#arrow-red)"/>
    </g>
    <g transform="translate(50, 40)">
      <circle cx="0" cy="0" r="18" fill="#f5f0e8" stroke="#423D33" stroke-width="1.5" filter="url(#shadow)"/>
      <line x1="0" y1="0" x2="3" y2="13" stroke="#423D33" stroke-width="2" marker-end="url(#arrow-charcoal)"/>
    </g>
  </g>

  <!-- Entrainment label -->
  <text x="200" y="475" font-family="system-ui, sans-serif" font-size="11" fill="#6b6358" text-anchor="middle">still recovering · cascade risk</text>

  <!-- Coherence after - returned to baseline pattern -->
  <g transform="translate(600, 405)">
    <g stroke="#D68A59" stroke-width="1" stroke-opacity="0.25">
      <line x1="-70" y1="-35" x2="0" y2="-35"/>
      <line x1="0" y1="-35" x2="70" y2="-35"/>
      <line x1="-70" y1="-35" x2="-35" y2="25"/>
      <line x1="70" y1="-35" x2="35" y2="25"/>
      <line x1="-35" y1="25" x2="35" y2="25"/>
      <line x1="0" y1="-35" x2="-35" y2="25"/>
      <line x1="0" y1="-35" x2="35" y2="25"/>
    </g>
    <g transform="translate(-70, -35)">
      <circle cx="0" cy="0" r="18" fill="#f5f0e8" stroke="#7B9361" stroke-width="1.5" filter="url(#shadow)"/>
      <line x1="0" y1="0" x2="-5" y2="-13" stroke="#D68A59" stroke-width="2" marker-end="url(#arrow-terracotta)"/>
    </g>
    <g transform="translate(0, -35)">
      <circle cx="0" cy="0" r="18" fill="#f5f0e8" stroke="#7B9361" stroke-width="1.5" filter="url(#shadow)"/>
      <line x1="0" y1="0" x2="10" y2="-10" stroke="#D68A59" stroke-width="2" marker-end="url(#arrow-terracotta)"/>
    </g>
    <g transform="translate(70, -35)">
      <circle cx="0" cy="0" r="18" fill="#f5f0e8" stroke="#7B9361" stroke-width="1.5" filter="url(#shadow)"/>
      <line x1="0" y1="0" x2="14" y2="0" stroke="#D68A59" stroke-width="2" marker-end="url(#arrow-terracotta)"/>
    </g>
    <g transform="translate(-35, 25)">
      <circle cx="0" cy="0" r="18" fill="#f5f0e8" stroke="#7B9361" stroke-width="1.5" filter="url(#shadow)"/>
      <line x1="0" y1="0" x2="-12" y2="-6" stroke="#D68A59" stroke-width="2" marker-end="url(#arrow-terracotta)"/>
    </g>
    <g transform="translate(35, 25)">
      <circle cx="0" cy="0" r="18" fill="#f5f0e8" stroke="#7B9361" stroke-width="1.5" filter="url(#shadow)"/>
      <line x1="0" y1="0" x2="8" y2="11" stroke="#D68A59" stroke-width="2" marker-end="url(#arrow-terracotta)"/>
    </g>
  </g>

  <!-- Coherence label -->
  <text x="600" y="475" font-family="system-ui, sans-serif" font-size="11" fill="#7B9361" text-anchor="middle">recovered · identity intact</text>

</svg>
